<?xml version="1.0" standalone="no"?>
<!DOCTYPE svg PUBLIC "-//W3C//DTD SVG 20010904//EN"
 "http://www.w3.org/TR/2001/REC-SVG-20010904/DTD/svg10.dtd">
<svg version="1.0" xmlns="http://www.w3.org/2000/svg"
 width="7632.000000pt" height="963.000000pt" viewBox="0 0 7632.000000 963.000000"
 preserveAspectRatio="xMidYMid meet">

<g transform="translate(0.000000,963.000000) scale(0.100000,-0.100000)"
fill="#000000" stroke="none">
<path d="M51335 9080 l-275 -550 781 2 781 3 245 420 c134 231 278 477 318
548 l74 127 -824 0 -825 0 -275 -550z"/>
<path d="M2670 8049 c-937 -66 -1633 -426 -2054 -1063 -330 -497 -518 -1155
-592 -2066 -21 -264 -30 -1163 -15 -1490 48 -1043 239 -1786 599 -2332 121
-182 328 -408 487 -529 494 -378 1161 -568 1990 -569 807 0 1546 176 2156 515
132 73 389 244 497 329 l82 66 0 1720 0 1720 -1325 0 -1325 0 0 -700 0 -700
515 0 515 0 0 -625 0 -625 -71 -46 c-280 -182 -639 -264 -1099 -251 -219 6
-328 21 -464 64 -418 131 -646 418 -785 986 -95 386 -131 817 -131 1577 0 775
35 1190 136 1600 162 658 470 962 1036 1021 138 15 444 6 548 -16 254 -52 446
-169 567 -345 165 -242 272 -725 273 -1227 l0 -93 810 0 810 0 0 263 c0 575
-52 961 -181 1342 -309 913 -1072 1397 -2329 1475 -188 11 -480 11 -650 -1z"/>
<path d="M28215 8049 c-770 -54 -1351 -291 -1777 -725 -120 -122 -180 -197
-274 -339 -355 -540 -545 -1285 -594 -2325 -12 -264 -12 -996 0 -1260 49
-1040 239 -1785 594 -2325 470 -715 1262 -1075 2366 -1075 805 0 1460 195
1925 573 94 75 281 266 346 352 423 554 646 1343 699 2475 12 264 12 996 0
1260 -53 1132 -276 1921 -699 2475 -65 86 -252 277 -346 352 -408 332 -938
515 -1625 563 -164 11 -451 11 -615 -1z m545 -1399 c253 -31 452 -123 610
-282 160 -162 263 -370 350 -713 102 -402 140 -837 140 -1625 0 -788 -38
-1223 -140 -1625 -87 -342 -192 -554 -351 -714 -203 -203 -454 -291 -834 -291
-379 0 -632 88 -836 290 -286 283 -442 827 -489 1695 -13 245 -13 1045 0 1290
45 836 190 1362 459 1667 61 69 194 165 287 210 91 42 233 83 339 97 100 12
365 13 465 1z"/>
<path d="M66675 8050 c-528 -41 -934 -153 -1295 -358 -825 -470 -1237 -1419
-1310 -3022 -13 -277 -13 -1003 0 -1280 41 -896 185 -1573 446 -2092 364 -726
995 -1143 1909 -1262 407 -54 927 -44 1359 25 607 97 1109 344 1422 699 245
278 419 664 503 1116 43 229 71 545 71 791 l0 123 -808 0 -809 0 -7 -142 c-14
-314 -65 -539 -167 -738 -181 -353 -473 -510 -950 -510 -250 0 -442 36 -598
110 -440 211 -635 670 -723 1695 -9 103 -13 360 -13 825 0 678 4 781 41 1110
44 391 131 734 242 955 165 329 435 509 833 556 134 15 436 6 539 -16 390 -86
596 -311 710 -777 53 -214 90 -545 90 -794 l0 -94 810 0 810 0 0 258 c0 530
-43 897 -146 1254 -269 937 -943 1429 -2126 1553 -169 18 -676 27 -833 15z"/>
<path d="M35866 7933 c-3 -10 -440 -1762 -971 -3893 -531 -2131 -968 -3883
-971 -3892 -5 -17 41 -18 864 -18 l870 0 10 43 c6 23 88 393 182 822 94 429
173 788 176 798 5 16 59 17 959 17 900 0 954 -1 959 -17 3 -10 86 -378 185
-818 100 -440 183 -810 186 -823 l5 -22 866 0 c820 0 865 1 860 18 -3 9 -440
1761 -971 3892 -531 2131 -968 3883 -971 3893 -5 16 -67 17 -1119 17 -1052 0
-1114 -1 -1119 -17z m1432 -3280 c173 -775 316 -1416 318 -1425 5 -17 -30 -18
-636 -18 -606 0 -641 1 -636 18 2 9 145 650 318 1425 172 774 315 1407 318
1407 3 0 146 -633 318 -1407z"/>
<path d="M72136 7933 c-3 -10 -440 -1762 -971 -3893 -531 -2131 -968 -3883
-971 -3892 -5 -17 41 -18 864 -18 l870 0 10 43 c6 23 88 393 182 822 94 429
173 788 176 798 5 16 59 17 959 17 900 0 954 -1 959 -17 3 -10 86 -378 185
-818 100 -440 183 -810 186 -823 l5 -22 866 0 c820 0 865 1 860 18 -3 9 -440
1761 -971 3892 -531 2131 -968 3883 -971 3893 -5 16 -67 17 -1119 17 -1052 0
-1114 -1 -1119 -17z m1432 -3280 c173 -775 316 -1416 318 -1425 5 -17 -30 -18
-636 -18 -606 0 -641 1 -636 18 2 9 145 650 318 1425 172 774 315 1407 318
1407 3 0 146 -633 318 -1407z"/>
<path d="M6900 4030 l0 -3900 810 0 810 0 0 1400 0 1400 416 -2 416 -3 534
-1395 533 -1395 875 -3 876 -2 -9 22 c-5 13 -273 673 -596 1468 -323 795 -595
1466 -606 1491 l-18 47 122 60 c529 260 854 675 1012 1288 66 254 95 540 95
924 0 458 -41 769 -140 1070 -207 625 -555 987 -1168 1214 -332 124 -629 181
-1052 206 -101 5 -754 10 -1542 10 l-1368 0 0 -3900z m2820 2489 c133 -16 236
-46 349 -100 90 -44 115 -62 190 -137 129 -130 197 -261 243 -473 20 -94 22
-131 22 -379 0 -248 -2 -285 -22 -379 -46 -212 -114 -343 -243 -473 -75 -75
-100 -93 -190 -137 -212 -102 -288 -111 -991 -111 l-558 0 0 1100 0 1100 558
0 c330 0 592 -4 642 -11z"/>
<path d="M13080 5183 c0 -1728 4 -2804 10 -2898 65 -971 398 -1604 1020 -1942
436 -237 1115 -358 1905 -340 385 10 654 37 939 98 472 99 816 265 1079 519
357 343 549 797 634 1492 16 132 18 358 20 2981 l4 2837 -811 0 -810 0 -3
-2782 -3 -2783 -21 -110 c-47 -236 -106 -388 -205 -519 -122 -162 -321 -264
-613 -312 -149 -25 -544 -26 -685 -1 -496 86 -709 305 -813 832 l-21 110 -3
2783 -3 2782 -810 0 -810 0 0 -2747z"/>
<path d="M19760 4030 l0 -3900 810 0 810 0 0 1400 0 1400 549 0 c730 0 1009
18 1341 86 329 68 720 226 970 392 174 116 369 333 482 538 218 395 308 825
308 1479 0 463 -41 773 -140 1075 -207 625 -555 987 -1168 1214 -332 124 -629
181 -1052 206 -101 5 -754 10 -1542 10 l-1368 0 0 -3900z m2820 2489 c133 -16
236 -46 349 -100 90 -44 115 -62 190 -137 129 -130 197 -261 243 -473 20 -94
22 -131 22 -379 0 -248 -2 -285 -22 -379 -46 -212 -114 -343 -243 -473 -75
-75 -100 -93 -190 -137 -212 -102 -288 -111 -991 -111 l-558 0 0 1100 0 1100
558 0 c330 0 592 -4 642 -11z"/>
<path d="M40750 4030 l0 -3900 810 0 810 0 0 1714 c0 1619 -1 1756 -25 2481
-14 423 -24 770 -22 771 2 2 313 -1109 692 -2469 378 -1359 690 -2478 693
-2485 6 -18 1648 -18 1654 1 3 6 315 1125 693 2484 379 1360 690 2471 692
2469 2 -2 -6 -348 -17 -770 -17 -655 -20 -1018 -20 -2482 l0 -1714 810 0 810
0 0 3900 0 3900 -1199 0 c-950 0 -1200 -3 -1203 -12 -3 -7 -315 -1126 -693
-2485 -379 -1360 -692 -2473 -695 -2473 -3 0 -318 1113 -700 2473 -381 1359
-695 2478 -698 2485 -3 9 -252 12 -1198 12 l-1194 0 0 -3900z"/>
<path d="M49440 4030 l0 -3900 2385 0 2385 0 0 700 0 700 -1575 0 -1575 0 0
940 0 940 1325 0 1325 0 0 700 0 700 -1325 0 -1325 0 0 860 0 860 1575 0 1575
0 0 700 0 700 -2385 0 -2385 0 0 -3900z"/>
<path d="M55170 4030 l0 -3900 810 0 810 0 0 1400 0 1400 416 -2 416 -3 534
-1395 533 -1395 875 -3 876 -2 -9 22 c-5 13 -273 673 -596 1468 -323 795 -595
1466 -606 1491 l-18 47 122 60 c529 260 854 675 1012 1288 66 254 95 540 95
924 0 458 -41 769 -140 1070 -207 625 -555 987 -1168 1214 -332 124 -629 181
-1052 206 -101 5 -754 10 -1542 10 l-1368 0 0 -3900z m2820 2489 c133 -16 236
-46 349 -100 90 -44 115 -62 190 -137 129 -130 197 -261 243 -473 20 -94 22
-131 22 -379 0 -248 -2 -285 -22 -379 -46 -212 -114 -343 -243 -473 -75 -75
-100 -93 -190 -137 -212 -102 -288 -111 -991 -111 l-558 0 0 1100 0 1100 558
0 c330 0 592 -4 642 -11z"/>
<path d="M61450 4030 l0 -3900 810 0 810 0 0 3900 0 3900 -810 0 -810 0 0
-3900z"/>
</g>
</svg>
